REM DIRINDEX 1\2,1\3
REM DIRNAME cjc039,folder01,folder02
TITLE ""
FILE "2901-2920.mp3" MP3
  TRACK 01 AUDIO
    TITLE "0:"
    INDEX 01 00:00:00
  TRACK 02 AUDIO
    TITLE "2:cjc039_4801"
    INDEX 01 00:00:27
  TRACK 03 AUDIO
    TITLE "0:"
    INDEX 01 00:01:56
  TRACK 04 AUDIO
    TITLE "3:cjc039_4802"
    INDEX 01 00:02:32
  TRACK 05 AUDIO
    TITLE "0:"
    INDEX 01 00:06:20
  TRACK 06 AUDIO
    TITLE "2:cjc039_4803"
    INDEX 01 00:07:70
  TRACK 07 AUDIO
    TITLE "0:"
    INDEX 01 00:09:30
  TRACK 08 AUDIO
    TITLE "3:cjc039_4804"
    INDEX 01 00:10:04
  TRACK 09 AUDIO
    TITLE "0:"
    INDEX 01 00:13:53
  TRACK 10 AUDIO
    TITLE "2:cjc039_4805"
    INDEX 01 00:15:32
  TRACK 11 AUDIO
    TITLE "0:"
    INDEX 01 00:16:53
  TRACK 12 AUDIO
    TITLE "3:cjc039_4806"
    INDEX 01 00:17:33
  TRACK 13 AUDIO
    TITLE "0:"
    INDEX 01 00:21:21
  TRACK 14 AUDIO
    TITLE "2:cjc039_4807"
    INDEX 01 00:22:72
  TRACK 15 AUDIO
    TITLE "0:"
    INDEX 01 00:24:02
  TRACK 16 AUDIO
    TITLE "3:cjc039_4808"
    INDEX 01 00:24:57
  TRACK 17 AUDIO
    TITLE "0:"
    INDEX 01 00:27:39
  TRACK 18 AUDIO
    TITLE "2:cjc039_4809"
    INDEX 01 00:29:17
  TRACK 19 AUDIO
    TITLE "0:"
    INDEX 01 00:30:26
  TRACK 20 AUDIO
    TITLE "3:cjc039_4810"
    INDEX 01 00:30:73
  TRACK 21 AUDIO
    TITLE "0:"
    INDEX 01 00:33:26
  TRACK 22 AUDIO
    TITLE "2:cjc039_4811"
    INDEX 01 00:35:00
  TRACK 23 AUDIO
    TITLE "0:"
    INDEX 01 00:36:29
  TRACK 24 AUDIO
    TITLE "3:cjc039_4812"
    INDEX 01 00:37:03
  TRACK 25 AUDIO
    TITLE "0:"
    INDEX 01 00:40:30
  TRACK 26 AUDIO
    TITLE "2:cjc039_4813"
    INDEX 01 00:42:06
  TRACK 27 AUDIO
    TITLE "0:"
    INDEX 01 00:45:00
  TRACK 28 AUDIO
    TITLE "3:cjc039_4814"
    INDEX 01 00:45:45
  TRACK 29 AUDIO
    TITLE "0:"
    INDEX 01 00:49:00
  TRACK 30 AUDIO
    TITLE "2:cjc039_4815"
    INDEX 01 00:50:54
  TRACK 31 AUDIO
    TITLE "0:"
    INDEX 01 00:52:30
  TRACK 32 AUDIO
    TITLE "3:cjc039_4816"
    INDEX 01 00:53:06
  TRACK 33 AUDIO
    TITLE "0:"
    INDEX 01 00:57:56
  TRACK 34 AUDIO
    TITLE "2:cjc039_4817"
    INDEX 01 00:59:34
  TRACK 35 AUDIO
    TITLE "0:"
    INDEX 01 01:00:47
  TRACK 36 AUDIO
    TITLE "3:cjc039_4818"
    INDEX 01 01:01:29
  TRACK 37 AUDIO
    TITLE "0:"
    INDEX 01 01:04:68
  TRACK 38 AUDIO
    TITLE "2:cjc039_4819"
    INDEX 01 01:06:43
  TRACK 39 AUDIO
    TITLE "0:"
    INDEX 01 01:08:05
  TRACK 40 AUDIO
    TITLE "3:cjc039_4820"
    INDEX 01 01:08:54
  TRACK 41 AUDIO
    TITLE "0:"
    INDEX 01 01:13:14
  TRACK 42 AUDIO
    TITLE "2:cjc039_4821"
    INDEX 01 01:14:68
  TRACK 43 AUDIO
    TITLE "0:"
    INDEX 01 01:15:62
  TRACK 44 AUDIO
    TITLE "3:cjc039_4822"
    INDEX 01 01:16:44
  TRACK 45 AUDIO
    TITLE "0:"
    INDEX 01 01:19:21
  TRACK 46 AUDIO
    TITLE "2:cjc039_4823"
    INDEX 01 01:20:73
  TRACK 47 AUDIO
    TITLE "0:"
    INDEX 01 01:22:41
  TRACK 48 AUDIO
    TITLE "3:cjc039_4824"
    INDEX 01 01:23:18
  TRACK 49 AUDIO
    TITLE "0:"
    INDEX 01 01:26:74
  TRACK 50 AUDIO
    TITLE "2:cjc039_4825"
    INDEX 01 01:28:53
  TRACK 51 AUDIO
    TITLE "0:"
    INDEX 01 01:29:62
  TRACK 52 AUDIO
    TITLE "3:cjc039_4826"
    INDEX 01 01:30:36
  TRACK 53 AUDIO
    TITLE "0:"
    INDEX 01 01:32:68
  TRACK 54 AUDIO
    TITLE "2:cjc039_4827"
    INDEX 01 01:34:50
  TRACK 55 AUDIO
    TITLE "0:"
    INDEX 01 01:36:11
  TRACK 56 AUDIO
    TITLE "3:cjc039_4828"
    INDEX 01 01:36:56
  TRACK 57 AUDIO
    TITLE "0:"
    INDEX 01 01:40:17
  TRACK 58 AUDIO
    TITLE "2:cjc039_4829"
    INDEX 01 01:41:61
  TRACK 59 AUDIO
    TITLE "0:"
    INDEX 01 01:43:27
  TRACK 60 AUDIO
    TITLE "3:cjc039_4830"
    INDEX 01 01:44:03
  TRACK 61 AUDIO
    TITLE "0:"
    INDEX 01 01:47:29
  TRACK 62 AUDIO
    TITLE "2:cjc039_4831"
    INDEX 01 01:49:08
  TRACK 63 AUDIO
    TITLE "0:"
    INDEX 01 01:50:41
  TRACK 64 AUDIO
    TITLE "3:cjc039_4832"
    INDEX 01 01:51:19
  TRACK 65 AUDIO
    TITLE "0:"
    INDEX 01 01:54:48
  TRACK 66 AUDIO
    TITLE "2:cjc039_4833"
    INDEX 01 01:56:28
  TRACK 67 AUDIO
    TITLE "0:"
    INDEX 01 01:57:35
  TRACK 68 AUDIO
    TITLE "3:cjc039_4834"
    INDEX 01 01:58:15
  TRACK 69 AUDIO
    TITLE "0:"
    INDEX 01 02:01:23
  TRACK 70 AUDIO
    TITLE "2:cjc039_4835"
    INDEX 01 02:03:02
  TRACK 71 AUDIO
    TITLE "0:"
    INDEX 01 02:04:35
  TRACK 72 AUDIO
    TITLE "3:cjc039_4836"
    INDEX 01 02:05:11
  TRACK 73 AUDIO
    TITLE "0:"
    INDEX 01 02:09:22
  TRACK 74 AUDIO
    TITLE "2:cjc039_4837"
    INDEX 01 02:10:71
  TRACK 75 AUDIO
    TITLE "0:"
    INDEX 01 02:12:11
  TRACK 76 AUDIO
    TITLE "3:cjc039_4838"
    INDEX 01 02:12:66
  TRACK 77 AUDIO
    TITLE "0:"
    INDEX 01 02:17:20
  TRACK 78 AUDIO
    TITLE "2:cjc039_4839"
    INDEX 01 02:18:74
  TRACK 79 AUDIO
    TITLE "0:"
    INDEX 01 02:20:24
  TRACK 80 AUDIO
    TITLE "3:cjc039_4840"
    INDEX 01 02:20:71
  TRACK 81 AUDIO
    TITLE "0:"
    INDEX 01 02:24:04
